<svg id="visual" viewBox="0 0 900 600" width="900" height="600" xmlns="http://www.w3.org/2000/svg" xmlns:xlink="http://www.w3.org/1999/xlink" version="1.1"><rect x="0" y="0" width="900" height="600" fill="#001220"></rect><path d="M0 353L21.5 358.7C43 364.3 86 375.7 128.8 389.5C171.7 403.3 214.3 419.7 257.2 423.2C300 426.7 343 417.3 385.8 417.2C428.7 417 471.3 426 514.2 427.2C557 428.3 600 421.7 642.8 422.5C685.7 423.3 728.3 431.7 771.2 428.7C814 425.7 857 411.3 878.5 404.2L900 397L900 601L878.5 601C857 601 814 601 771.2 601C728.3 601 685.7 601 642.8 601C600 601 557 601 514.2 601C471.3 601 428.7 601 385.8 601C343 601 300 601 257.2 601C214.3 601 171.7 601 128.8 601C86 601 43 601 21.5 601L0 601Z" fill="#63cab3"></path><path d="M0 467L21.5 467.5C43 468 86 469 128.8 464.5C171.7 460 214.3 450 257.2 438.3C300 426.7 343 413.3 385.8 408.7C428.7 404 471.3 408 514.2 414.5C557 421 600 430 642.8 432.3C685.7 434.7 728.3 430.3 771.2 427.3C814 424.3 857 422.7 878.5 421.8L900 421L900 601L878.5 601C857 601 814 601 771.2 601C728.3 601 685.7 601 642.8 601C600 601 557 601 514.2 601C471.3 601 428.7 601 385.8 601C343 601 300 601 257.2 601C214.3 601 171.7 601 128.8 601C86 601 43 601 21.5 601L0 601Z" fill="#7ad0e3"></path><path d="M0 511L21.5 507.8C43 504.7 86 498.3 128.8 489.5C171.7 480.7 214.3 469.3 257.2 470.5C300 471.7 343 485.3 385.8 486.8C428.7 488.3 471.3 477.7 514.2 474.3C557 471 600 475 642.8 476.7C685.7 478.3 728.3 477.7 771.2 473.2C814 468.7 857 460.3 878.5 456.2L900 452L900 601L878.5 601C857 601 814 601 771.2 601C728.3 601 685.7 601 642.8 601C600 601 557 601 514.2 601C471.3 601 428.7 601 385.8 601C343 601 300 601 257.2 601C214.3 601 171.7 601 128.8 601C86 601 43 601 21.5 601L0 601Z" fill="#b5d2f2"></path><path d="M0 504L21.5 506.8C43 509.7 86 515.3 128.8 520.8C171.7 526.3 214.3 531.7 257.2 532.5C300 533.3 343 529.7 385.8 526.8C428.7 524 471.3 522 514.2 519.8C557 517.7 600 515.3 642.8 510.3C685.7 505.3 728.3 497.7 771.2 496.8C814 496 857 502 878.5 505L900 508L900 601L878.5 601C857 601 814 601 771.2 601C728.3 601 685.7 601 642.8 601C600 601 557 601 514.2 601C471.3 601 428.7 601 385.8 601C343 601 300 601 257.2 601C214.3 601 171.7 601 128.8 601C86 601 43 601 21.5 601L0 601Z" fill="#dfd7eb"></path><path d="M0 534L21.5 539.7C43 545.3 86 556.7 128.8 556.7C171.7 556.7 214.3 545.3 257.2 538.2C300 531 343 528 385.8 533C428.7 538 471.3 551 514.2 557.3C557 563.7 600 563.3 642.8 562.5C685.7 561.7 728.3 560.3 771.2 554C814 547.7 857 536.3 878.5 530.7L900 525L900 601L878.5 601C857 601 814 601 771.2 601C728.3 601 685.7 601 642.8 601C600 601 557 601 514.2 601C471.3 601 428.7 601 385.8 601C343 601 300 601 257.2 601C214.3 601 171.7 601 128.8 601C86 601 43 601 21.5 601L0 601Z" fill="#ebe4e7"></path></svg>